<svg version="1.1" xmlns="http://www.w3.org/2000/svg" xmlns:xlink="http://www.w3.org/1999/xlink" width="193.19048" height="209.0521" viewBox="0,0,193.19048,209.0521"><defs><linearGradient x1="244.6432" y1="224.99838" x2="244.59844" y2="226.34308" gradientUnits="userSpaceOnUse" id="color-1"><stop offset="0" stop-color="#ffffff"/><stop offset="1" stop-color="#bdbdbd"/></linearGradient><linearGradient x1="257.01571" y1="225.40958" x2="256.97094" y2="226.75429" gradientUnits="userSpaceOnUse" id="color-2"><stop offset="0" stop-color="#ffffff"/><stop offset="1" stop-color="#bdbdbd"/></linearGradient><linearGradient x1="270.12172" y1="225.67362" x2="270.07695" y2="227.01832" gradientUnits="userSpaceOnUse" id="color-3"><stop offset="0" stop-color="#ffffff"/><stop offset="1" stop-color="#bdbdbd"/></linearGradient><linearGradient x1="282.49422" y1="226.08482" x2="282.44946" y2="227.42953" gradientUnits="userSpaceOnUse" id="color-4"><stop offset="0" stop-color="#ffffff"/><stop offset="1" stop-color="#bdbdbd"/></linearGradient><linearGradient x1="194.92628" y1="223.9158" x2="194.88152" y2="225.26051" gradientUnits="userSpaceOnUse" id="color-5"><stop offset="0" stop-color="#ffffff"/><stop offset="1" stop-color="#bdbdbd"/></linearGradient><linearGradient x1="207.29879" y1="224.32701" x2="207.25402" y2="225.67171" gradientUnits="userSpaceOnUse" id="color-6"><stop offset="0" stop-color="#ffffff"/><stop offset="1" stop-color="#bdbdbd"/></linearGradient><linearGradient x1="220.40479" y1="224.59104" x2="220.36003" y2="225.93575" gradientUnits="userSpaceOnUse" id="color-7"><stop offset="0" stop-color="#ffffff"/><stop offset="1" stop-color="#bdbdbd"/></linearGradient><linearGradient x1="232.7773" y1="225.00225" x2="232.73254" y2="226.34695" gradientUnits="userSpaceOnUse" id="color-8"><stop offset="0" stop-color="#ffffff"/><stop offset="1" stop-color="#bdbdbd"/></linearGradient><linearGradient x1="245.45684" y1="231.28865" x2="245.45511" y2="229.9432" gradientUnits="userSpaceOnUse" id="color-9"><stop offset="0" stop-color="#ffffff"/><stop offset="1" stop-color="#bdbdbd"/></linearGradient><linearGradient x1="257.53815" y1="231.27342" x2="257.53641" y2="229.92797" gradientUnits="userSpaceOnUse" id="color-10"><stop offset="0" stop-color="#ffffff"/><stop offset="1" stop-color="#bdbdbd"/></linearGradient><linearGradient x1="270.9439" y1="230.53471" x2="270.94219" y2="229.18926" gradientUnits="userSpaceOnUse" id="color-11"><stop offset="0" stop-color="#ffffff"/><stop offset="1" stop-color="#bdbdbd"/></linearGradient><linearGradient x1="283.32324" y1="230.42015" x2="283.32151" y2="229.0747" gradientUnits="userSpaceOnUse" id="color-12"><stop offset="0" stop-color="#ffffff"/><stop offset="1" stop-color="#bdbdbd"/></linearGradient><linearGradient x1="195.73073" y1="229.58829" x2="195.729" y2="228.24284" gradientUnits="userSpaceOnUse" id="color-13"><stop offset="0" stop-color="#ffffff"/><stop offset="1" stop-color="#bdbdbd"/></linearGradient><linearGradient x1="208.11006" y1="229.57306" x2="208.10833" y2="228.22761" gradientUnits="userSpaceOnUse" id="color-14"><stop offset="0" stop-color="#ffffff"/><stop offset="1" stop-color="#bdbdbd"/></linearGradient><linearGradient x1="221.11846" y1="231.61581" x2="221.11674" y2="230.27036" gradientUnits="userSpaceOnUse" id="color-15"><stop offset="0" stop-color="#ffffff"/><stop offset="1" stop-color="#bdbdbd"/></linearGradient><linearGradient x1="232.90177" y1="231.20323" x2="232.90004" y2="229.85778" gradientUnits="userSpaceOnUse" id="color-16"><stop offset="0" stop-color="#ffffff"/><stop offset="1" stop-color="#bdbdbd"/></linearGradient></defs><g transform="translate(-140.30512,-81.7868)"><g data-paper-data="{&quot;isPaintingLayer&quot;:true}" fill-rule="nonzero" stroke-linejoin="miter" stroke-miterlimit="10" stroke-dasharray="" stroke-dashoffset="0" style="mix-blend-mode: normal"><path d="M241.59738,278.66778c-27.61207,0 -75.35181,-8.1088 -92.04071,-28.80645c-13.68728,-16.97503 -7.95929,-44.05458 0.04071,-68.19355c5.88869,-17.76838 16.12456,-36.11276 24.59063,-51.02111c8.13264,-14.3212 11.71013,-23.1252 27.22399,-30.26671c6.64532,-3.05905 27.37987,-15.71217 37.18538,-15.71217c13.64307,0 44.58491,-4.79971 56.20086,0.93502c6.22706,3.07427 16.53273,10.93255 17.45973,23.70791c0.70952,9.7782 0.61139,22.43697 0.84573,38.03597c0.32619,21.71279 7.2227,39.41595 12.46178,54.7712c2.91529,8.54445 8.77118,24.21638 6.36246,35.98851c-2.71272,13.25785 -14.29773,22.37444 -21.61974,26.16876c-19.57137,10.14204 -50.89834,14.39262 -68.71082,14.39262z" fill="#cc3535" stroke="#ffb7af" stroke-width="2" stroke-linecap="butt"/><path d="M331.42535,238.20666c-2.02345,5.20416 -1.08862,12.4525 -4.84322,16.29219c-4.6956,4.78877 -10.65587,12.35878 -17.06409,14.92277c-2.22463,0.89009 -5.11683,-3.42507 -7.18872,-2.36834c-4.56486,2.32823 -9.65878,3.6736 -14.45325,5.42028c-8.47378,3.08708 -17.40355,6.79069 -26.34016,7.88535c-8.41612,0.01472 -16.66316,-0.19548 -25.0343,-0.69768c-4.5689,-0.27409 -9.25583,0.46794 -13.80888,-0.00941c-2.2517,-0.23608 -4.45428,-0.90476 -6.71413,-1.0371c-5.72486,-0.33524 -11.29253,0.00838 -17.0132,-0.72089c-4.13551,-0.53083 -8.05687,-1.73701 -12.14325,-2.46792c-3.00418,-0.53734 -6.15641,-0.74803 -9.00922,-1.98333c-6.46809,-2.80075 -12.06986,-8.02184 -16.90679,-13.01349c-1.81163,-1.86958 -4.06197,-2.97311 -6.09884,-4.53059c-3.35385,-2.56448 -5.96238,-5.75614 -9.10336,-8.54104c-0.85625,-1.27838 -3.14046,-4.5975 -3.68618,-5.84694c-1.39356,-3.19054 -1.00548,-6.52164 -1.00136,-9.89588c0.00719,-5.88647 0.41327,-12.28002 1.42216,-18.08188c0.32145,-1.84859 1.10325,-3.60098 1.34979,-5.4615c0.25456,-1.92101 -0.33068,-3.91393 0.03955,-5.81527c0.61766,-3.17204 2.05605,-4.31735 1.97721,-7.61809l8.40059,-23.37209c-0.01967,1.26954 -0.88535,25.93103 -1.10551,27.18071c-0.33066,1.87681 -1.69738,3.44852 -2.06839,5.31747c-0.34682,1.74712 0.2684,3.58031 0.03955,5.34752c-0.25137,1.94116 -1.05481,3.77274 -1.38661,5.70129c-0.9286,5.39749 -1.32153,11.32961 -1.31426,16.80184c0.0027,2.03615 -0.57768,4.94146 0.36685,6.8483c0.68683,1.38659 1.64853,2.61276 2.47072,3.92051c2.80086,2.40867 5.04872,5.24791 7.99916,7.50547c2.34708,1.7959 4.77554,3.09312 6.89906,5.23686c4.25129,4.29177 8.9424,8.91529 14.56184,11.40511c2.29631,1.01743 4.98959,1.0671 7.40919,1.50505c3.97456,0.7194 7.77948,1.90711 11.80028,2.4158c5.54695,0.70713 10.95253,0.33458 16.50773,0.67446c2.34392,0.1434 4.63336,0.79841 6.96788,1.05593c4.45166,0.49106 9.08006,-0.27787 13.55514,-0.00941c8.10001,0.48593 16.0759,0.68142 24.22093,0.69768c8.09969,-0.79696 16.61033,-4.66935 24.28328,-7.46348c4.49696,-1.63759 9.31698,-2.86409 13.59487,-5.04484c7.35386,-3.74881 13.80108,-9.10612 19.58393,-15.00371c3.03515,-3.08777 13.48595,-8.82836 12.83403,-7.15168z" fill="#ffb7af" stroke="none" stroke-width="0.5" stroke-linecap="butt"/><path d="M142.7907,254.98674l-1.39535,-24.41861c0,0 10.19762,44.5099 92.78627,46.16752c94.7014,1.90073 97.67885,-39.19078 97.67885,-39.19078c0,0 0.45346,12.90722 0.1865,15.57679c-0.09238,0.92374 -0.1865,1.86507 -0.1865,1.86507c0,0 -7.92665,34.3204 -99.06977,35.58139c-73.4666,1.01644 -90,-35.58139 -90,-35.58139z" fill="#ffb7af" stroke="#d49090" stroke-width="0.5" stroke-linecap="butt"/><path d="M157.40168,161.07504c1.95255,-5.55321 4.44919,-11.45314 7.31916,-16.59539c0.91443,-1.63843 2.23153,-3.03388 3.07921,-4.70833c0.87523,-1.72888 0.98165,-3.80322 1.95955,-5.47531c1.63145,-2.78958 3.36757,-3.39505 4.38423,-6.53631l15.654,-19.28151c-0.43821,1.19168 -9.40705,24.18076 -10.02793,25.28743c-0.93245,1.66201 -2.74187,2.69361 -3.70981,4.33486c-0.90483,1.53427 -0.93015,3.46778 -1.73029,5.06001c-0.87889,1.74895 -2.24259,3.212 -3.19322,4.92247c-2.66054,4.78715 -12.05991,19.24714 -13.68374,19.29921c-0.71385,0.02289 -1.42897,0.04039 -2.14524,0.05301c0.43803,-2.16989 1.34418,-4.22739 2.09408,-6.36013z" fill="#ffb7af" stroke="none" stroke-width="0.5" stroke-linecap="butt"/><path d="M316.94543,197.61107c-2.48266,-5.33732 -4.81826,-11.30283 -6.35741,-16.98707c-0.49041,-1.81112 -0.52296,-3.7297 -1.0863,-5.51995c-0.58164,-1.84844 -1.95472,-3.40695 -2.42323,-5.28648c-0.78163,-3.13567 0.03753,-4.78178 -1.42967,-7.73956l5.75262,-24.73194c0.51902,1.15877 2.13972,23.87291 2.46866,25.09847c0.49399,1.84058 -0.07991,3.84279 0.37419,5.6933c0.4245,1.72988 1.7572,3.13096 2.29711,4.82916c0.59305,1.86536 0.63949,3.86487 1.15434,5.75282c1.44091,5.28384 8.27989,24.39533 7.77623,24.90478c-1.20256,-1.85853 -7.57306,-3.96371 -8.52654,-6.01354z" data-paper-data="{&quot;index&quot;:null}" fill="#ffb7af" stroke="none" stroke-width="0.5" stroke-linecap="butt"/><path d="M202.81345,171.41253c-0.6585,0.75258 -1.41108,0.09408 -1.41108,0.09408l-0.89105,-0.78689c-1.82156,-2.41482 -3.77089,-4.25375 -6.69698,-5.13031c0,0 -0.70487,-0.21147 -0.72386,-0.87626c-0.99585,-1.24511 -1.98054,-2.09593 -3.40529,-2.81066c-6.66141,-5.3113 -13.12313,-10.16219 -18.41367,-16.96309c0,0 -0.61394,-0.78935 0.17541,-1.40329c0.78935,-0.61394 1.4033,0.17541 1.4033,0.17541c5.15556,6.62975 11.43915,11.30424 17.91286,16.5063c1.62052,0.80752 2.78167,1.86866 3.91539,3.27886l-0.12957,-0.16769c0,0 0.37914,0.18957 0.52031,0.56871c2.90409,1.04261 5.03602,2.94993 6.90857,5.46206l0.74159,0.64169c0,0 0.75258,0.6585 0.09408,1.41108z" fill="#ffb7af" stroke="none" stroke-width="0.5" stroke-linecap="butt"/><path d="M174.95706,161.54639c-0.89443,0.44721 -1.34164,-0.44721 -1.34164,-0.44721l-0.20351,-0.56076c-0.32987,-3.66423 -0.47265,-7.4848 1.34623,-10.78026c0,0 0.48565,-0.87416 1.3598,-0.38852c0.87416,0.48565 0.38851,1.3598 0.38851,1.3598c-1.62321,2.89971 -1.39913,6.40177 -1.10276,9.6279l0.00058,-0.1526c0,0 0.44721,0.89443 -0.44721,1.34164z" fill="#ffb7af" stroke="none" stroke-width="0.5" stroke-linecap="butt"/><path d="M185.02005,164.57546c-0.25,0 -0.25,-0.25 -0.25,-0.25v-0.20408c0,-1.99444 0.00118,-2.91 1.11167,-3.9955c-0.48908,-0.78047 -1.06047,-1.49042 -1.8433,-2.02201c0,0 -0.81923,-0.57346 -0.24577,-1.3927c0.57346,-0.81923 1.3927,-0.24577 1.3927,-0.24577c2.10876,1.51007 2.864,3.77464 4.24542,5.8878c1.40398,2.14766 2.95084,4.29083 3.78287,6.75807l0.20408,0.61225c0,0 0.31623,0.94868 -0.63245,1.26491c-0.94869,0.31623 -1.26491,-0.63245 -1.26491,-0.63245l-0.20409,-0.61225c-0.75707,-2.30249 -2.25851,-4.30679 -3.56407,-6.30316c-0.59599,-0.91135 -1.06114,-1.9294 -1.60777,-2.8769c-0.93143,0.94368 -0.87437,1.71124 -0.87437,3.55771v0.20408c0,0 0,0.25 -0.25,0.25z" fill="#ffb7af" stroke="none" stroke-width="0.5" stroke-linecap="butt"/><path d="M185.8292,150.54277c-0.70711,0.70711 -1.41421,0 -1.41421,0l0.11943,0.06501c-2.72091,-1.51511 -4.7379,-3.09123 -7.10393,-5.1149c0,0 -0.75925,-0.65079 -0.10846,-1.41005c0.65079,-0.75925 1.41004,-0.10846 1.41004,-0.10846c2.28067,1.9588 4.15042,3.43086 6.77363,4.8851l0.3235,0.26909c0,0 0.70711,0.70711 0,1.41421z" fill="#ffb7af" stroke="none" stroke-width="0.5" stroke-linecap="butt"/><path d="M178.06468,166.04709c-0.9053,-0.42476 -0.48055,-1.33006 -0.48055,-1.33006l0.78835,-1.67898c1.08225,-2.7637 1.72816,-5.61542 2.52079,-8.47003c0,0 0.26764,-0.96352 1.23116,-0.69588c0.96352,0.26764 0.69588,1.23117 0.69588,1.23117c-0.81798,2.94354 -1.49551,5.87353 -2.61028,8.72432l-0.81528,1.73891c0,0 -0.42476,0.90531 -1.33006,0.48055z" fill="#ffb7af" stroke="none" stroke-width="0.5" stroke-linecap="butt"/><path d="M197.90018,172.01161c-0.23717,-0.07906 -0.15812,-0.31623 -0.15812,-0.31623l0.09244,-0.26711c0.00188,-0.99361 0.3029,-1.96891 0.3029,-3.02117c0,0 0,-0.25 0.25,-0.25c0.25,0 0.25,0.25 0.25,0.25c0,1.07424 -0.31132,2.0873 -0.30935,3.10127l-0.11164,0.34513c0,0 -0.07906,0.23717 -0.31623,0.15812z" fill="#ffb7af" stroke="none" stroke-width="0.5" stroke-linecap="butt"/><path d="M179.20373,156.7183c-0.25,0 -0.25,-0.25 -0.25,-0.25l0.0264,0.00977c-0.22837,-0.45817 -0.29723,-0.80008 -0.66745,-1.15951c0,0 -0.17677,-0.17678 0,-0.35356c0.17677,-0.17677 0.35355,0 0.35355,0c0.40983,0.4196 0.50415,0.77724 0.76112,1.28946l0.02639,0.21384c0,0 0,0.25 -0.25,0.25z" fill="#ffb7af" stroke="none" stroke-width="0.5" stroke-linecap="butt"/><path d="M190.97506,161.06408c-0.20801,0.13868 -0.34669,-0.06934 -0.34669,-0.06934l-0.20641,-0.30969c-0.81845,-1.32292 -1.00651,-3.00115 -2.21865,-4.01072c-2.15968,-1.80014 -4.76543,-3.59331 -6.72737,-5.53945c0,0 -0.17677,-0.17678 0,-0.35356c0.17677,-0.17677 0.35355,0 0.35355,0c1.92079,1.93875 4.55685,3.72841 6.69391,5.50889c1.28105,1.06815 1.46654,2.74564 2.31925,4.12461l0.20175,0.30255c0,0 0.13868,0.20802 -0.06933,0.34669z" fill="#ffb7af" stroke="none" stroke-width="0.5" stroke-linecap="butt"/><path d="M273.60781,270.8438c-0.24174,-0.32232 -0.25622,-0.61217 -0.18732,-0.84339c-0.04016,-0.02184 -0.07864,-0.04634 -0.11523,-0.07329c-0.15242,0.30336 -0.29598,0.60805 -0.42728,0.91469c0,0 -0.39391,0.91914 -1.31306,0.52522c-0.91915,-0.39392 -0.52523,-1.31306 -0.52523,-1.31306c1.07214,-2.49959 2.39705,-4.78798 3.74486,-7.14502c0.60636,-1.06041 1.1313,-3.11742 3.11721,-1.77546c1.58288,1.06961 3.73478,6.73166 1.6718,8.05321c-1.16282,0.74491 -2.05481,0.70383 -2.67236,0.24288c-0.47499,0.41695 -0.94846,0.83562 -1.42084,1.25552l-0.47253,0.35871c0,0 -0.8,0.6 -1.4,-0.2z" fill="#ffb7af" stroke="none" stroke-width="0.5" stroke-linecap="butt"/><path d="M198.36699,260.34585c0,0.26042 -0.06782,0.45302 -0.16814,0.59547c0.01564,0.02686 0.03006,0.06084 0.03451,0.09938c0.26754,-0.21078 0.44562,-0.45222 0.32503,-0.71783c0,0 -0.07905,-0.23718 0.15812,-0.31623c0.23717,-0.07905 0.31623,0.15812 0.31623,0.15812c0.23899,0.86942 -0.5069,1.26485 -1.15382,1.66872c0.19021,0.03694 0.38219,0.07251 0.57715,0.10826c1.34288,0.0403 2.68534,0.06332 4.02779,0.07638c-0.1892,-0.14639 -0.36123,-0.30969 -0.513,-0.4918c0,0 -0.16004,-0.19205 0.03201,-0.3521c0.19206,-0.16005 0.3521,0.03201 0.3521,0.03201c0.28437,0.34125 0.65397,0.60933 1.08189,0.8196c1.79254,0.01171 3.58524,0.00882 5.37911,0.00882c0.79648,0 1.66866,0.02328 2.5728,0.04129c2.5483,-0.32237 5.03052,-0.61771 7.62986,-0.65033c3.15198,-0.7654 6.54936,-0.79683 9.7671,-1.08075c3.43884,-0.30336 6.88539,-0.55512 10.33636,-0.55512c3.35065,0 6.71056,-0.07033 10.05994,0.02175c3.46145,0.09516 6.92354,0.14581 10.38533,0.22631c1.38161,0.03213 2.75876,0.10699 4.13462,0.1976c0.9486,-0.02724 1.90324,-0.0375 2.86909,-0.0375c1.07505,0 2.1501,0 3.22515,0c2.68786,-0.61091 5.29805,-0.5102 8.08097,-0.5102c0,0 0.25,0 0.25,0.25c0,0.10111 -0.04089,0.16134 -0.08961,0.1972c0.7006,-0.04369 1.45045,-0.05803 1.93439,0.17611c0.21345,0.10327 0.41485,0.2375 0.60489,0.3971c0.24977,0 0.49953,0 0.7493,0c0.78911,0 1.57823,0 2.36735,0l-0.07473,-0.02882c0,0 0.17678,-0.17678 0.35355,0c0.17678,0.17678 0,0.35356 0,0.35356l-0.27882,0.17527c-0.78911,0 -1.57823,0 -2.36735,0c-0.08452,0 -0.16904,0 -0.25357,0c1.21945,1.4477 1.88504,3.93969 2.2512,5.40365l0.03629,-0.0141c0,0 0.17678,0.17677 0,0.35355c-0.17678,0.17678 -0.35356,0 -0.35356,0l-0.1678,-0.21818c-0.36926,-1.47773 -1.08483,-4.26441 -2.44425,-5.52492c-0.58672,0 -1.17343,0 -1.76015,0c-0.01175,0.08396 -0.05563,0.13338 -0.10321,0.16246l0.1351,0.12504c0,0 0.17678,0.17678 0,0.35356c-0.17678,0.17678 -0.35355,0 -0.35355,0l-0.05202,-0.06333c-0.63448,-0.39584 -1.7671,-0.16897 -2.51249,-0.16995c-0.60317,0.06759 -1.21224,0.11531 -1.82484,0.15119c0.01258,0.02974 0.0202,0.06575 0.0202,0.1094c0,0.25 -0.25,0.25 -0.25,0.25c-0.6554,0 -1.30637,0.00259 -1.95466,0.01012c0.31281,0.16579 0.61988,0.30619 1.15229,0.30738c1.00034,0.19579 1.86497,0.7353 2.78502,1.09208c0.30473,-0.07795 0.60433,-0.16526 0.89747,-0.2641c0,0 0.23717,-0.07906 0.31623,0.15811c0.07905,0.23717 -0.15812,0.31623 -0.15812,0.31623c-0.05656,0.01866 -0.11332,0.03692 -0.1703,0.05478c0.2274,0.04462 0.46108,0.07029 0.70349,0.07029l0.09228,-0.07565c0,0 0.2236,-0.1118 0.33541,0.11181c0.11181,0.22361 -0.11181,0.33541 -0.11181,0.33541l-0.31588,0.12843c-0.57518,0 -1.09449,-0.13535 -1.59341,-0.32495c-2.42038,0.58478 -5.11743,0.63181 -7.52893,1.16316c-3.41109,0.7516 -6.83066,1.46056 -10.26954,2.07464c-3.39244,0.60579 -6.69679,1.31844 -9.99527,2.32902c-1.51735,0.46488 -3.04349,0.8736 -4.56982,1.30579l-0.319,0.16065c0,0 -0.22362,0.11178 -0.3354,-0.11183c-0.11178,-0.22362 0.11184,-0.3354 0.11184,-0.3354l0.36135,-0.17943c1.5359,-0.44196 3.07573,-0.84945 4.60456,-1.31784c3.3176,-1.01643 6.64173,-1.73386 10.05385,-2.34316c3.4323,-0.61291 6.84529,-1.32056 10.24985,-2.07072c2.18137,-0.48064 4.62561,-0.55102 6.86155,-1.00702c-0.6585,-0.303 -1.31388,-0.62725 -2.05375,-0.77264c-1.00349,0.00247 -1.30349,-0.50636 -2.19446,-0.73229c-0.07006,-0.01776 -0.14083,-0.03447 -0.21227,-0.05017c-0.22559,0.00532 -0.45099,0.01144 -0.67629,0.01845c0.00002,0.00165 0.00003,0.00331 0.00003,0.00498c0,0.25 -0.25,0.25 -0.25,0.25c-2.77018,-0.00129 -5.64954,1.28123 -8.35093,1.91347c-3.35275,0.78469 -6.66715,1.74272 -10.00051,2.60693c-3.36145,0.87149 -6.72774,1.80674 -10.12756,2.51504c-3.40875,0.71015 -6.75211,1.60393 -10.23538,1.72404c-3.42691,0.11503 -6.94225,0.83326 -10.28214,1.56855c-3.04059,0.66894 -6.7611,0.3428 -9.63689,1.3014c-0.50847,-0.00071 -0.81079,0.12009 -1.27975,0.29379l-0.18887,0.01556c0,0 -0.25,0 -0.25,-0.25c0,-0.25 0.25,-0.25 0.25,-0.25l0.01522,0.01556c0.48989,-0.18144 0.84436,-0.31772 1.37331,-0.31845c2.86946,-0.95649 6.57683,-0.62806 9.60949,-1.29617c3.37169,-0.74228 6.9132,-1.45767 10.3724,-1.57994c3.45367,-0.11909 6.7704,-1.00961 10.15063,-1.71383c3.39192,-0.70665 6.75041,-1.64008 10.10405,-2.50955c3.33721,-0.8652 6.65544,-1.82418 10.01206,-2.60978c1.72668,-0.40411 3.51719,-1.06194 5.30889,-1.49453c-0.51027,0.04195 -1.02192,0.09106 -1.53582,0.14845c-0.80442,0.11422 -1.60797,0.22568 -2.41132,0.33362c-1.004,0.29836 -2.01009,0.59017 -3.0217,0.8639c-2.27772,0.61606 -4.46846,0.84141 -6.72134,0.92251c-2.45898,0.70017 -4.86739,1.53891 -7.35853,2.14396c-3.49279,0.84717 -6.79812,1.33931 -10.37969,1.63052c-0.58721,0.04738 -1.17188,0.06714 -1.7547,0.06581c-2.07192,0.29772 -4.15553,0.48976 -6.25275,0.48976c-3.42829,0 -6.85251,-0.16667 -10.28009,-0.22022c-0.6976,-0.0109 -1.38941,-0.02794 -2.07751,-0.05183c-0.56651,0.11785 -1.13284,0.2369 -1.699,0.35728c-2.09833,0.44615 -4.16737,0.94998 -6.29359,1.24072l-0.42532,0.00059c0,0 -0.25,0 -0.25,-0.25c0,-0.25 0.25,-0.25 0.25,-0.25l0.391,0.00059c2.03542,-0.28469 4.01928,-0.7586 6.02752,-1.18903c-2.09003,-0.11605 -4.1641,-0.3029 -6.28158,-0.58119c-2.55189,-0.33538 -6.7896,-0.23581 -8.86454,-1.86678c0,0 -0.19522,-0.15617 -0.03904,-0.35139c0.15617,-0.19522 0.35139,-0.03904 0.35139,-0.03904c0.95515,0.78055 2.50104,1.14255 4.10816,1.34804l-0.20843,-0.12634c-0.06419,-0.02982 -0.12391,-0.0656 -0.17836,-0.10812c0.09518,-0.08122 0.20555,-0.14774 0.32717,-0.20244l0.07681,-0.04753c0.0145,-0.00049 0.02899,-0.00099 0.04346,-0.00153c0.35929,-0.13268 0.79684,-0.18013 1.2269,-0.20557c-1.03786,-0.08131 -2.07506,-0.20182 -3.1141,-0.38252c-1.75897,-0.30591 -3.35756,-0.91919 -5.05578,-1.38667c-0.77344,1.09402 -2.47176,1.85928 -3.41305,1.89967c-0.24588,0.01055 -0.46223,-0.09002 -0.66674,-0.2378c-0.07206,0.08193 -0.1573,0.15198 -0.25242,0.20682l-1.00469,0.60282l-0.16354,-0.27257c-1.51542,0.93458 -3.05532,0.9347 -4.91908,-0.00521c-0.3802,0.06111 -0.77158,-0.06302 -1.11793,-0.29888l-0.10594,0.15892c-0.17806,0.2757 -0.48804,0.45821 -0.84065,0.45821c-0.46024,0 -0.84786,-0.31092 -0.96428,-0.73417l-0.29967,-0.99889l0.02637,-0.00791c-0.03021,-0.09055 -0.05358,-0.18351 -0.06854,-0.27944c-0.31098,-1.99484 0.94691,-2.4152 2.5707,-2.23541c0.26118,-0.10297 0.54112,-0.17302 0.83208,-0.21558l0.91179,-0.43419l0.03401,0.07142c1.04476,-0.79893 2.23634,-1.3365 3.57512,-1.8354l0.1403,0.02928l-0.00418,-0.05014l1.21284,-0.10107c0.03117,-0.00293 0.06276,-0.00443 0.0947,-0.00443c0.43995,0 0.81355,0.28411 0.94732,0.67888c1.40206,-1.3352 3.04349,-1.69333 4.97105,-1.69928h0.04106c-0.42574,-0.56051 -0.91018,-1.07678 -1.41555,-1.45306c0,0 -0.2,-0.15 -0.05,-0.35c0.15,-0.2 0.35,-0.05 0.35,-0.05c0.62367,0.4708 1.23369,1.1418 1.73872,1.85307h0.25413c0,0 1,0 1,1zM196.31767,263.19901l-0.61173,0.45075l0.0301,-0.00282c1.29832,-0.21262 2.58812,-0.28424 3.90108,-0.28787c0.08437,-0.00565 0.16869,-0.01141 0.25296,-0.0173c-0.06465,-0.22282 -0.07201,-0.45922 -0.01053,-0.70959c0,0 0.02344,-0.09376 0.09946,-0.15011c-0.52519,-0.01169 -1.05042,-0.02589 -1.57568,-0.04311c-0.37158,-0.06707 -0.73322,-0.13417 -1.09219,-0.21075c-0.20476,0.14722 -0.40659,0.28096 -0.60688,0.40281c-0.05831,0.23221 -0.19782,0.43219 -0.38661,0.56799zM245.67822,265.95811c0,0.25 -0.25,0.25 -0.25,0.25l-0.25999,-0.0043c-0.21905,0.09046 -0.44126,0.17332 -0.66618,0.24958c0.22767,-0.05255 0.45604,-0.1066 0.68525,-0.16219c1.8919,-0.45823 3.73622,-1.05236 5.5911,-1.61866c-0.44248,0.00389 -0.88878,0.00495 -1.33997,0.00495c-1.14533,0 -2.26192,-0.08739 -3.36641,-0.21096c-0.70027,0.05262 -1.40069,0.10442 -2.10129,0.15582c-2.29981,0.16872 -4.59969,0.33661 -6.89964,0.50348c-1.40503,0.28044 -2.81193,0.55244 -4.22995,0.77254c-1.6586,0.25744 -3.60813,0.47164 -5.47968,0.37548c-1.40956,0.21101 -2.81562,0.43853 -4.21112,0.70694c-2.14115,0.41163 -4.27939,0.83041 -6.41506,1.26367c3.39507,0.05498 6.78691,0.21874 10.18274,0.21874c1.10011,0 2.19643,-0.05352 3.28925,-0.14774c-1.39852,-0.1311 -2.79333,-0.32057 -4.19441,-0.47624c0,0 -0.24847,-0.0276 -0.22086,-0.27607c0.02761,-0.24847 0.27608,-0.22087 0.27608,-0.22087c2.35297,0.26144 4.68926,0.62479 7.0555,0.63297c1.31898,-0.1901 2.63319,-0.42332 3.94315,-0.67672c2.67086,-0.51668 5.4662,-0.63774 8.00924,-1.58614l0.35225,-0.00429c0,0 0.25,0 0.25,0.25zM206.34459,267.52437c2.7549,0.36206 5.43433,0.56829 8.173,0.66499c2.79928,-0.58193 5.60278,-1.13481 8.41126,-1.67513c-2.05463,0 -4.10927,0 -6.1639,0c-1.79289,0 -3.61362,-0.06487 -5.43093,-0.08015c-0.34653,0.05991 -0.69308,0.11971 -1.03966,0.17935c-1.17081,-0.0132 -2.33387,-0.01542 -3.49256,-0.03547c-0.4364,0.04755 -0.87279,0.09511 -1.30919,0.14267c-0.75984,0.10745 -1.50498,0.22358 -2.2642,0.30544c-0.34282,0.05608 -0.69628,0.09939 -1.01433,0.08457c-0.09198,0.00513 -0.18434,0.00951 -0.27712,0.01308c1.59064,0.19669 3.23022,0.24592 4.40762,0.40066zM217.77947,265.69784l-0.07414,0.00128c-0.16096,0.00258 -0.32192,0.00516 -0.48288,0.00774c-0.66457,0.10384 -1.33294,0.20355 -2.00393,0.29426c0.51724,0.00784 1.03296,0.01308 1.54644,0.01308c2.83757,0 5.67513,0 8.5127,0c-0.51256,-0.10821 -1.00657,-0.25142 -1.47289,-0.43625c0,0 -0.1757,-0.07028 -0.16023,-0.24141c-0.70189,0.03578 -1.40908,0.05521 -2.12447,0.05521c-1.17588,0 -2.33924,0.03753 -3.49773,0.10177c-0.02737,0.20061 -0.24286,0.20432 -0.24286,0.20432zM200.09454,265.54429c1.63394,0.28416 3.26148,0.41447 4.89412,0.47931c-1.80038,-0.37407 -4.06109,-1.08522 -4.85749,-2.19781c-0.15872,0.01141 -0.31759,0.02241 -0.47665,0.03297c-1.29185,0.00423 -2.55998,0.07172 -3.83755,0.28159l-0.26281,0.0258c0,0 -0.22359,0.02148 -0.26726,-0.18822c-0.02199,0.07572 -0.04889,0.15046 -0.08032,0.22411c1.63772,0.45984 3.18708,1.04645 4.88795,1.34225zM200.36463,262.75344c-0.04899,0.19205 -0.03323,0.37585 0.03603,0.5512c1.37631,-0.10393 2.74113,-0.23784 4.10483,-0.38856c-0.40985,-0.09951 -0.80005,-0.22649 -1.15886,-0.3882c-1.02471,-0.0066 -2.04936,-0.0185 -3.07409,-0.03954c0.13591,0.08979 0.09208,0.2651 0.09208,0.2651zM206.85888,265.81771c0.46132,0.04692 0.92358,0.07968 1.38644,0.09999c0.97547,-0.1063 1.95096,-0.2126 2.92643,-0.3189c1.5595,-0.16994 3.10142,-0.32989 4.64353,-0.45452c1.58762,-0.27402 3.17569,-0.54541 4.7642,-0.81412c1.4615,-0.24723 2.8753,-0.54883 4.28616,-0.87889c-2.6686,-0.00786 -5.32161,-0.02607 -7.97785,0.30595c0,0 -0.24807,0.031 -0.27908,-0.21706c-0.03101,-0.24807 0.21707,-0.27908 0.21707,-0.27908c3.00057,-0.37507 5.99647,-0.30805 9.01553,-0.30805c0.34974,0 0.69905,0.00317 1.04803,0.00885c0.35313,-0.08747 0.7074,-0.17595 1.06351,-0.26502c0.02616,-0.07006 0.08734,-0.15199 0.23046,-0.15199c0.25,0 0.25,0.25 0.25,0.25l-0.11149,0.20288c2.30626,0.07533 4.6037,0.22253 6.91979,0.25498c-1.83757,-0.23453 -3.67299,-0.50887 -5.48689,-0.76801c-2.38709,-0.34101 -4.79298,-0.47946 -7.202,-0.53224c-0.697,0.06315 -1.39538,0.12267 -2.09628,0.17242c-3.422,0.53729 -6.6989,1.12405 -10.17108,1.12405c-1.0724,0 -2.4869,0.05879 -3.87809,-0.04888c-1.88924,0.22602 -3.77177,0.43123 -5.67472,0.58052c1.21126,1.19977 4.85842,1.90819 6.12633,2.03715zM220.66288,264.82313c-0.16654,0.02817 -0.33306,0.0564 -0.49957,0.08468c0.4507,-0.01049 0.9028,-0.01605 1.35674,-0.01605c3.53004,0 6.85725,-0.47802 10.33641,-1.05784c0.31467,-0.05244 0.63008,-0.10208 0.94593,-0.14998c-1.95338,-0.07631 -3.90033,-0.18783 -5.85742,-0.22118c-2.08533,0.5156 -4.13321,0.99685 -6.2821,1.36037zM242.20883,262.08054c0,0.25 -0.25,0.25 -0.25,0.25l-0.01426,-0.01592c-0.72231,0.27087 -1.45601,0.49338 -2.1977,0.68196c2.12884,-0.27324 4.25257,-0.69114 6.38247,-0.90959c3.0092,-0.30862 6.00442,-0.54153 8.99155,-0.98423c-1.39048,0.01063 -2.78053,0.03886 -4.16959,0.105c-3.32789,0.1849 -6.66995,0.10237 -10.00268,0.10237c-3.44743,0 -6.89175,0.10204 -10.33674,0.10204c-1.46111,0 -2.90872,0.08631 -4.35331,0.20398c1.19228,0.08442 2.38186,0.20427 3.56686,0.37355c2.48206,0.35458 5.00395,0.73799 7.5166,1.00792c1.50341,-0.26711 2.98863,-0.61179 4.42697,-1.15116l0.18982,-0.01592c0,0 0.25,0 0.25,0.25zM231.93866,264.32714c-2.52506,0.42082 -4.97185,0.78771 -7.47239,0.96008c0.87378,0.28623 1.83765,0.43487 2.82864,0.49068c2.0522,-0.30761 4.11178,-0.58049 6.15733,-0.89128c1.18759,-0.08652 2.37519,-0.17275 3.5628,-0.25896c1.3522,-0.26996 2.70274,-0.54753 4.05985,-0.794c-0.41957,-0.04383 -0.84102,-0.08169 -1.26526,-0.11079c-0.3953,-0.02823 -0.79125,-0.06047 -1.18765,-0.09614c-0.82846,0.08164 -1.65811,0.13241 -2.48969,0.13241c-0.12422,0 -0.24838,-0.0004 -0.37249,-0.00117c-1.27373,0.19079 -2.55284,0.3578 -3.82115,0.56917zM255.39683,263.93692c-0.02011,0.00439 -0.04021,0.0088 -0.06031,0.01322c1.24604,-0.13391 2.49191,-0.34599 3.76511,-0.68133c-0.13605,0.01637 -0.27211,0.03262 -0.40819,0.04873c-1.10537,0.18117 -2.20604,0.38148 -3.29661,0.61938zM270.80161,261.20797c-0.92978,-0.0011 -1.85933,-0.00941 -2.78875,-0.02085c-0.33013,0.09261 -0.6598,0.18682 -0.98913,0.28222c0.61551,-0.02498 1.23064,-0.03346 1.82732,-0.00559c1.40273,-0.07102 2.81978,-0.0922 4.22448,-0.15494c-0.75905,-0.02843 -1.51746,-0.06223 -2.27392,-0.10085zM254.39398,263.27373c1.41765,-0.13342 2.8294,-0.28573 4.23874,-0.45259c1.41528,-0.23152 2.8381,-0.43212 4.25722,-0.64019c0.00756,-0.00227 0.01512,-0.00453 0.02269,-0.0068c-3.19293,0.09915 -6.36845,0.36891 -9.55616,0.59719c-2.95128,0.21134 -5.87627,0.58385 -8.79965,1.01169c0.49572,0.06559 0.99232,0.12842 1.49147,0.18389c2.78386,-0.20923 5.56528,-0.4315 8.3457,-0.69319zM249.78673,264.17726c0.95129,-0.00133 1.88114,-0.00914 2.80018,-0.04093c0.35306,-0.10039 0.70718,-0.19788 1.06273,-0.29139c-1.28735,0.1178 -2.57494,0.22771 -3.86292,0.33231zM242.81875,264.04389c-0.55519,0.08733 -1.10874,0.18245 -1.66119,0.28273c0.81283,-0.05921 1.62564,-0.11857 2.43845,-0.17813c-0.25899,-0.03522 -0.518,-0.07031 -0.77725,-0.1046zM243.06664,263.49968c3.40825,-0.5164 6.81348,-0.98068 10.25412,-1.22708c3.4028,-0.24368 6.79177,-0.53421 10.20271,-0.61543c0.41857,-0.00997 0.85775,-0.03315 1.30942,-0.06065c0.48489,-0.1456 0.96997,-0.29045 1.45562,-0.43324c-1.85156,-0.0274 -3.70275,-0.05723 -5.55416,-0.05723c-0.73881,0 -1.47772,-0.00274 -2.21666,-0.00518c-0.74066,0.08886 -1.48358,0.19601 -2.23137,0.32479c-3.35665,0.55945 -6.72243,0.81167 -10.10595,1.15871c-1.73433,0.17788 -3.46384,0.48633 -5.19541,0.74253c0.60195,0.06308 1.19941,0.13802 1.79529,0.21689c0.09542,-0.01495 0.19089,-0.02966 0.28641,-0.04414zM276.89761,260.69791c-2.09276,0 -4.18554,0 -6.2783,0c0.06511,0.0034 0.13022,0.00677 0.19536,0.0101c0.06506,0.00007 0.13012,0.00011 0.19518,0.00011c2.87146,0 5.74291,0 8.61437,0c-0.72017,-0.24626 -2.02027,-0.01021 -2.72661,-0.01021zM276.89761,260.19791c0.11169,0 0.23406,-0.00457 0.3641,-0.01164c-1.02055,-0.00421 -2.01972,-0.01464 -3.01049,0.01164c0.88213,0 1.76426,0 2.64639,0zM210.28536,262.7489c1.14571,0 2.26971,-0.06507 3.38461,-0.17138c-0.73827,0.0102 -1.47838,0.00321 -2.20131,-0.00786c-0.4713,0.05966 -0.94491,0.12027 -1.422,0.18031c0.08166,-0.00068 0.16129,-0.00107 0.2387,-0.00107zM205.04789,262.53461c0.41685,0.0798 0.8516,0.13388 1.29074,0.16993c0.46354,-0.05541 0.92748,-0.11209 1.39225,-0.1695c-0.8945,0.00055 -1.78879,0.00126 -2.68299,-0.00043zM230.61189,260.91219c3.44498,0 6.88932,-0.10204 10.33674,-0.10204c3.32412,0 6.65763,0.08267 9.97692,-0.10171c2.51881,-0.11996 5.04088,-0.11579 7.56271,-0.1076c0.21609,-0.02578 0.43198,-0.05001 0.64776,-0.07279c-3.32261,-0.07507 -6.64547,-0.12541 -9.96773,-0.21675c-3.34479,-0.09195 -6.70014,-0.02157 -10.0462,-0.02157c-3.4363,0 -6.86819,0.25097 -10.29241,0.55318c-2.33151,0.20572 -4.76084,0.27546 -7.11964,0.5944c0.27231,0.00389 0.54462,0.00868 0.81688,0.01456c2.69287,-0.24475 5.36593,-0.53969 8.08497,-0.53969z" fill="#ffb7af" stroke="none" stroke-width="0.5" stroke-linecap="butt"/><path d="M301.23552,208.67564c-0.70711,-0.70711 0,-1.41421 0,-1.41421l0.50711,-0.49289c2.50417,-1.86756 4.60613,-4.36177 6.67242,-6.68604c1.11913,-1.11819 1.45888,-2.01973 2.27693,-3.2397c0.7795,-1.16248 2.24491,-2.02065 3,-3.2c0.70285,-1.09776 0.25065,-3.73975 0.25065,-4.87427c0,-6.19076 -0.7544,-10.11558 -3.46875,-15.50473c-1.33931,-2.07652 -2.45359,-4.26967 -3.91384,-6.27272c-2.076,-2.84768 -7.23067,-4.67643 -10.17461,-6.51732c-3.53419,-2.20999 -6.35397,-4.71062 -10.64281,-4.70523c0,0 -1,0 -1,-1c0,-1 1,-1 1,-1c4.74029,0.00551 7.8116,2.57515 11.70333,5.00956c3.24264,2.02838 8.31183,3.88226 10.67925,6.96789c1.56808,2.0438 2.69654,4.37086 4.08616,6.52728c1.16438,2.3473 2.79208,4.62035 3.3086,7.28357c0.58549,3.01885 0.42266,6.15691 0.42266,9.2117c0,1.80543 0.40325,4.2725 -0.54935,5.92573c-0.70233,1.21889 -2.23349,2.04234 -3,3.2c-0.83863,1.26657 -1.36858,2.40483 -2.52308,3.5603c-2.14898,2.41793 -4.33432,4.9595 -6.92757,6.91397l-0.29289,0.30711c0,0 -0.70711,0.70711 -1.41422,0z" fill="#ffb7af" stroke="none" stroke-width="0.5" stroke-linecap="butt"/><path d="M327.48131,222.77654c-0.20801,0.13868 -0.34669,-0.06933 -0.34669,-0.06933l-0.05855,-0.08783c-1.05122,-1.57683 -1.99508,-3.03113 -2.70555,-4.79134c-1.30885,-3.24269 -2.94707,-6.33 -4.45952,-9.48242c-0.93758,-1.95421 -1.89066,-3.9032 -2.79557,-5.87281c-0.2027,-0.4412 -0.4987,-1.72686 -0.97279,-1.65428c0,0 -0.25,0 -0.25,-0.25c0,-0.25 0.25,-0.25 0.25,-0.25c0.92197,0.06942 1.07139,1.17124 1.42721,1.94572c0.90373,1.96703 1.8556,3.91345 2.79195,5.8651c1.51707,3.16205 3.1595,6.25891 4.47238,9.51156c0.69781,1.72882 1.6249,3.15159 2.65792,4.70113l0.05855,0.08783c0,0 0.13868,0.20801 -0.06933,0.34669z" fill="#ffb7af" stroke="none" stroke-width="0.5" stroke-linecap="butt"/><path d="M327.24965,217.59447c-0.22593,0.10701 -0.33295,-0.11892 -0.33295,-0.11892l-0.04318,-0.09117c-1.17771,-2.48793 -1.35656,-5.09471 -1.89634,-7.76149c-0.60216,-2.97603 -1.08453,-5.80726 -1.08453,-8.85435c0,0 0,-0.25 0.25,-0.25c0.25,0 0.25,0.25 0.25,0.25c0,3.01433 0.4789,5.81108 1.0746,8.7552c0.53087,2.62467 0.69841,5.19967 1.85815,7.64661l0.04318,0.09117c0,0 0.10701,0.22594 -0.11892,0.33295z" fill="#ffb7af" stroke="none" stroke-width="0.5" stroke-linecap="butt"/><path d="M313.90533,127.97872c0.18982,0.1627 0.02712,0.35251 0.02712,0.35251c-0.21693,0.25308 -0.65767,0.76729 -0.8746,1.02038c-2.28882,2.66893 -3.1551,6.02235 -4.86192,9.0513c-1.72363,3.05878 -3.49563,6.06377 -5.35777,9.04032c-1.1735,1.8758 -3.88226,5.47446 -3.84552,7.7253c0,0 0,0.25 -0.25,0.25c-0.25,0 -0.25,-0.25 -0.25,-0.25c0.0304,-2.43011 2.65461,-5.96519 3.92163,-7.99049c1.85809,-2.9701 3.62615,-5.96845 5.34605,-9.0206c1.72476,-3.0608 2.60431,-6.43072 4.91789,-9.13124c0.21693,-0.25308 0.43386,-0.50617 0.65079,-0.75926l0.22382,-0.26111c0,0 0.16269,-0.18981 0.35251,-0.02711z" fill="#ffb7af" stroke="none" stroke-width="0.5" stroke-linecap="butt"/><path d="M315.24358,134.33981c0.22871,0.10095 0.12776,0.32966 0.12776,0.32966l-0.07934,0.17976c-0.87438,1.98101 -1.7004,3.98087 -2.5305,5.98079c-1.33914,3.22634 -3.19442,6.24826 -4.7566,9.37404c-1.33298,2.66717 -2.51076,5.41732 -3.83866,8.07626c0,0 -0.1118,0.22361 -0.33541,0.11181c-0.22361,-0.11181 -0.11181,-0.33541 -0.11181,-0.33541c1.33017,-2.65705 2.50586,-5.40946 3.83862,-8.07618c1.55685,-3.11513 3.40751,-6.12693 4.74205,-9.34219c0.83152,-2.00334 1.659,-4.00662 2.53488,-5.99102l0.07934,-0.17976c0,0 0.10096,-0.22871 0.32967,-0.12776z" fill="#ffb7af" stroke="none" stroke-width="0.5" stroke-linecap="butt"/><path d="M312.99021,188.20318c-0.03465,0.24758 -0.28224,0.21294 -0.28224,0.21294l-0.09784,-0.0137c-0.34895,-0.05032 -0.69416,-0.14682 -1.01862,-0.28473c-3.21688,-1.39259 -5.39661,-4.68919 -7.54261,-7.32334c-2.21163,-2.71471 -4.39199,-5.45272 -6.56817,-8.19591c-2.17393,-2.74035 -4.50485,-5.38931 -6.49806,-8.26417c-1.26079,-1.81848 -3.38865,-6.01361 -5.35185,-6.94214c0,0 -0.22361,-0.11181 -0.11181,-0.33541c0.11181,-0.2236 0.33541,-0.11181 0.33541,-0.11181c2.11312,1.10018 4.1673,5.12581 5.53915,7.10446c1.98703,2.86595 4.31167,5.50644 6.47887,8.23832c2.17483,2.74149 4.35384,5.47782 6.5641,8.19085c2.08133,2.55478 4.22108,5.84346 7.35247,7.1798c0.28253,0.12309 0.58501,0.20763 0.89041,0.24889l0.09785,0.01369c0,0 0.24758,0.03466 0.21293,0.28224z" fill="#ffb7af" stroke="none" stroke-width="0.5" stroke-linecap="butt"/><path d="M313.98561,180.22736c-0.05883,0.24298 -0.30181,0.18415 -0.30181,0.18415l-0.16727,-0.04049c-2.10965,-0.52403 -4.37957,-2.36489 -6.08952,-4.10416c0.47789,0.72049 0.97652,1.42646 1.49948,2.11371c1.67359,2.19934 3.23158,4.70093 5.64309,6.11401l0.09943,0.05827c0,0 0.2157,0.1264 0.08931,0.34209c-0.12639,0.2157 -0.34209,0.0893 -0.34209,0.0893l-0.09943,-0.05827c-2.47483,-1.45019 -4.07155,-3.98671 -5.7882,-6.24262c-1.10843,-1.45664 -2.10895,-2.99649 -3.03465,-4.58057c-1.9973,-2.38172 -3.8439,-4.85895 -5.64676,-7.40059c-1.38865,-1.95775 -4.8341,-5.36078 -4.34972,-7.78269c0,0 0.04903,-0.24514 0.29417,-0.19611c0.24514,0.04903 0.19612,0.29417 0.19612,0.29417c-0.43827,2.19134 2.9904,5.59522 4.26725,7.39535c1.24901,1.76092 2.51898,3.49073 3.84598,5.17903c-0.33939,-0.64169 -0.66975,-1.28714 -0.99313,-1.93391c-1.12164,-2.24327 -3.41804,-5.95768 -2.80778,-8.55014c0,0 0.06063,-0.24254 0.30316,-0.1819c0.24253,0.06063 0.18191,0.30317 0.18191,0.30317c-0.63614,2.366 1.74497,6.15536 2.76993,8.20528c0.73814,1.47627 1.51261,2.9457 2.34863,4.37882c0.2364,0.28161 0.47494,0.56188 0.71578,0.84075c1.64306,1.90249 4.48561,4.63739 7.01468,5.23104l0.16727,0.0405c0,0 0.24298,0.05883 0.18416,0.30181z" fill="#ffb7af" stroke="none" stroke-width="0.5" stroke-linecap="butt"/><path d="M258.39059,93.60042c-0.03189,0.24796 -0.27985,0.21607 -0.27985,0.21607l-0.37282,-0.05267c-0.85579,-0.31597 -2.36784,-1.64954 -3.17871,-2.98461c-0.77722,0.6561 -1.57184,1.27115 -2.44382,1.844c2.5435,-0.82613 1.31947,2.39862 0.92084,3.52986c-0.06791,0.19273 0.80663,0.6103 0.91377,0.89471c0.28857,0.766 0.13027,2.45016 -0.21434,3.13996c-0.44611,0.86544 -1.02656,1.72001 -1.34718,2.63538l-0.0101,0.02863c0,0 -0.08321,0.23575 -0.31896,0.15254c-0.23575,-0.08321 -0.15253,-0.31896 -0.15253,-0.31896l0.01011,-0.02862c0.33343,-0.93801 0.91655,-1.81017 1.37423,-2.69806c0.32548,-0.60733 0.38673,-2.06479 0.18599,-2.74812c-0.20807,-0.70828 -1.05631,-0.06184 -0.9332,-1.14539c0.08426,-0.74162 1.46634,-1.61396 0.98595,-2.56516c-0.10145,-0.20088 -0.94947,-0.33696 -1.59986,-0.43122l-0.00852,0.09525l-0.49551,-0.04431c-0.12883,-0.01008 -0.23023,-0.11781 -0.23023,-0.24923c0,-0.07152 0.03003,-0.13603 0.07817,-0.1816l0.36204,-0.34407l0.00383,0.00403l0.01366,-0.01917c0.9553,-0.62157 1.81651,-1.28601 2.66031,-2.0001c-0.29631,-0.61643 -0.40708,-1.20834 -0.19484,-1.67281c0,0 0.11181,-0.22361 0.33541,-0.11181c0.2236,0.11181 0.11181,0.33541 0.11181,0.33541c-0.15874,0.27871 -0.08729,0.67918 0.12377,1.1268c0.28578,-0.24793 0.57086,-0.50173 0.85827,-0.76165c3.53518,-3.19706 -2.18604,-2.37709 -4.81468,-2.88904l-0.0207,0.10906l-0.48683,-0.0924c-0.11796,-0.02007 -0.20779,-0.12277 -0.20779,-0.24645c0,-0.11246 0.07426,-0.20758 0.17642,-0.23899l0.46887,-0.1563l0.004,0.01199l0.03501,-0.0216c1.29461,-0.00774 2.63577,-0.10994 3.90068,0.20424c0,0 0.11458,0.02864 0.16654,0.1253c1.49459,0.23146 2.79883,0.70987 2.8215,1.51595c0.02148,0.76359 -1.21758,1.60588 -1.70765,2.04908c-0.31699,0.28667 -0.63118,0.56662 -0.94665,0.83976c0.77459,1.24667 2.32298,2.65413 2.95902,2.83339l0.27849,0.0311c0,0 0.24795,0.03189 0.21607,0.27985z" fill="#ffb7af" stroke="none" stroke-width="0.5" stroke-linecap="butt"/><path d="M228.62433,119.49926c0,5.72034 -4.63725,8.79042 -10.35759,8.79042c-5.72034,0 -10.35759,-3.07008 -10.35759,-8.79042c0,-5.72033 4.63724,-7.8949 10.35758,-7.8949c5.72034,0 10.35759,2.17456 10.35759,7.8949z" fill="#ffffff" stroke-opacity="0.23902" stroke="#000000" stroke-width="2.5" stroke-linecap="butt"/><path d="M276.38552,118.90225c0,5.72034 -4.63726,8.79042 -10.35759,8.79042c-5.72034,0 -10.35759,-3.07008 -10.35759,-8.79042c0,-5.72033 4.63725,-7.8949 10.35758,-7.8949c5.72033,0 10.35759,2.17456 10.35759,7.8949z" fill="#ffffff" stroke-opacity="0.23902" stroke="#000000" stroke-width="2.5" stroke-linecap="butt"/><path d="M205.19201,114.87872c1.50521,-6.19463 6.64091,-8.10738 13.29859,-8.10738c6.60141,0 11.69891,2.28307 13.25955,8.39837" fill="none" stroke="#ffb7af" stroke-width="1" stroke-linecap="butt"/><path d="M252.50545,115.17722c1.50521,-6.19463 6.6409,-8.10738 13.29859,-8.10738c6.60141,0 11.6989,2.28307 13.25955,8.39837" fill="none" stroke="#ffb7af" stroke-width="1" stroke-linecap="butt"/><path d="M214.01624,119.89707c0,-2.45133 1.98719,-4.43852 4.43852,-4.43852c2.45133,0 4.43852,1.98719 4.43852,4.43852c0,2.45133 -1.98719,4.43852 -4.43852,4.43852c-2.45133,0 -4.43852,-1.98719 -4.43852,-4.43852z" fill="#000000" stroke-opacity="0.53226" stroke="#009cff" stroke-width="5" stroke-linecap="butt"/><path d="M179.51322,220.16929c10.59839,0.80404 40.86705,2.97849 58.24454,2.97849c16.84138,0 50.1505,-0.92778 65.57909,-1.38614c5.06154,-0.15037 6.42363,1.48329 1.45197,3.72635c-9.11106,4.11063 -28.9576,9.93252 -68.28863,9.93252c-31.63251,0 -50.84531,-9.41684 -57.80935,-13.59214c-1.98363,-1.18929 -1.58154,-1.84145 0.82238,-1.65908z" fill="#000000" stroke="none" stroke-width="2.5" stroke-linecap="butt"/><g stroke="none" stroke-width="0" stroke-linecap="butt"><g><g><path d="M239.48697,225.41181c0.01271,-0.38193 0.01721,-0.51696 0.01721,-0.51696l10.27804,0.20707c0,0 -0.00851,0.2558 -0.02148,0.64536c-0.00912,0.2738 -0.31165,0.69353 -0.78936,0.68391c-2.0772,-0.04185 -7.73431,-0.15582 -8.82939,-0.17788c-0.35924,-0.00724 -0.66523,-0.53524 -0.65503,-0.84149z" fill="url(#color-1)"/><path d="M249.76551,221.13873l-0.13495,4.05396l-10.27805,-0.20706l0.13495,-4.05396z" data-paper-data="{&quot;index&quot;:null}" fill="#ffffff"/></g><g><path d="M251.85947,225.82302c0.01271,-0.38193 0.01721,-0.51696 0.01721,-0.51696l10.27805,0.20707c0,0 -0.00851,0.2558 -0.02148,0.64536c-0.00912,0.2738 -0.31165,0.69353 -0.78936,0.68391c-2.07721,-0.04185 -7.7343,-0.15582 -8.82938,-0.17788c-0.35924,-0.00724 -0.66523,-0.53524 -0.65504,-0.84149z" fill="url(#color-2)"/><path d="M262.13801,221.54994l-0.13495,4.05396l-10.27805,-0.20707l0.13495,-4.05396z" data-paper-data="{&quot;index&quot;:null}" fill="#ffffff"/></g><g><path d="M264.96548,226.08706c0.01272,-0.38193 0.01721,-0.51697 0.01721,-0.51697l10.27805,0.20706c0,0 -0.00851,0.25581 -0.02148,0.64537c-0.00912,0.2738 -0.31165,0.69352 -0.78936,0.6839c-2.07721,-0.04185 -7.73432,-0.15581 -8.82939,-0.17788c-0.35924,-0.00724 -0.66522,-0.53523 -0.65502,-0.84149z" fill="url(#color-3)"/><path d="M275.24402,221.81397l-0.13495,4.05396l-10.27804,-0.20707l0.13495,-4.05396z" data-paper-data="{&quot;index&quot;:null}" fill="#ffffff"/></g><g><path d="M277.33799,226.49825c0.01272,-0.38193 0.01721,-0.51696 0.01721,-0.51696l10.27805,0.20706c0,0 -0.00851,0.25581 -0.02148,0.64536c-0.00912,0.2738 -0.31165,0.69353 -0.78936,0.6839c-2.07721,-0.04185 -7.73431,-0.15581 -8.82938,-0.17788c-0.35924,-0.00724 -0.66523,-0.53524 -0.65503,-0.84149z" fill="url(#color-4)"/><path d="M287.61653,222.22518l-0.13495,4.05396l-10.27805,-0.20707l0.13495,-4.05396z" data-paper-data="{&quot;index&quot;:null}" fill="#ffffff"/></g></g><g><g><path d="M189.77005,224.32924c0.01271,-0.38193 0.01721,-0.51696 0.01721,-0.51696l10.27805,0.20706c0,0 -0.00851,0.25581 -0.02148,0.64537c-0.00912,0.2738 -0.31166,0.69352 -0.78936,0.6839c-2.07721,-0.04185 -7.73431,-0.15581 -8.82939,-0.17788c-0.35924,-0.00724 -0.66522,-0.53524 -0.65502,-0.84149z" fill="url(#color-5)"/><path d="M200.04858,220.05616l-0.13495,4.05396l-10.27804,-0.20706l0.13494,-4.05396z" data-paper-data="{&quot;index&quot;:null}" fill="#ffffff"/></g><g><path d="M202.14255,224.74044c0.01271,-0.38193 0.01721,-0.51696 0.01721,-0.51696l10.27805,0.20706c0,0 -0.00852,0.25581 -0.02149,0.64536c-0.00912,0.2738 -0.31166,0.69353 -0.78936,0.6839c-2.07721,-0.04185 -7.73431,-0.15581 -8.82938,-0.17788c-0.35924,-0.00724 -0.66523,-0.53524 -0.65503,-0.84149z" fill="url(#color-6)"/><path d="M212.42109,220.46736l-0.13494,4.05396l-10.27805,-0.20706l0.13495,-4.05396z" data-paper-data="{&quot;index&quot;:null}" fill="#ffffff"/></g><g><path d="M215.24856,225.00448c0.01271,-0.38193 0.01721,-0.51696 0.01721,-0.51696l10.27804,0.20706c0,0 -0.00851,0.25581 -0.02148,0.64537c-0.00912,0.2738 -0.31166,0.69352 -0.78937,0.6839c-2.07721,-0.04185 -7.73431,-0.15581 -8.82939,-0.17788c-0.35924,-0.00724 -0.66522,-0.53524 -0.65502,-0.84149z" fill="url(#color-7)"/><path d="M225.52709,220.7314l-0.13494,4.05395l-10.27804,-0.20706l0.13495,-4.05396z" data-paper-data="{&quot;index&quot;:null}" fill="#ffffff"/></g><g><path d="M227.62107,225.41568c0.01271,-0.38193 0.01721,-0.51696 0.01721,-0.51696l10.27805,0.20707c0,0 -0.00852,0.25581 -0.02149,0.64536c-0.00912,0.2738 -0.31166,0.69353 -0.78936,0.68391c-2.07721,-0.04185 -7.73431,-0.15581 -8.82939,-0.17788c-0.35924,-0.00724 -0.66523,-0.53524 -0.65503,-0.8415z" fill="url(#color-8)"/><path d="M237.89961,221.1426l-0.13495,4.05396l-10.27805,-0.20706l0.13495,-4.05396z" data-paper-data="{&quot;index&quot;:null}" fill="#ffffff"/></g></g></g><path d="M306.89918,222.87506h-11.18182l-117.27273,-3" fill="none" stroke="#900e00" stroke-width="3" stroke-linecap="round"/><g data-paper-data="{&quot;index&quot;:null}" stroke="none" stroke-width="0" stroke-linecap="butt"><g><g><path d="M240.99808,229.89038c1.09522,0.01298 6.75307,0.08003 8.83056,0.10465c0.47778,0.00566 0.76673,0.43486 0.76708,0.70881c0.0005,0.38978 0.00082,0.64572 0.00082,0.64572l-10.2794,-0.12181c0,0 -0.00017,-0.13511 -0.00066,-0.51726c-0.00039,-0.30642 0.32232,-0.82437 0.68161,-0.82011z" fill="url(#color-9)"/><path d="M240.17365,235.28769l-0.0052,-4.0562l10.27942,0.12182l0.0052,3.65885z" data-paper-data="{&quot;index&quot;:null}" fill="#ffffff"/></g><g><path d="M253.0794,229.87516c1.09522,0.01298 6.75306,0.08002 8.83055,0.10464c0.47777,0.00566 0.76673,0.43487 0.76708,0.70881c0.0005,0.38977 0.00083,0.64572 0.00083,0.64572l-10.27942,-0.12181c0,0 -0.00017,-0.1351 -0.00066,-0.51725c-0.00039,-0.30642 0.32233,-0.82437 0.68162,-0.82011z" fill="url(#color-10)"/><path d="M252.45364,235.17313l-0.00521,-4.0562l10.27941,0.12181l0.79991,3.06282z" data-paper-data="{&quot;index&quot;:null}" fill="#ffffff"/></g><g><path d="M266.48515,229.13645c1.09522,0.01298 6.75308,0.08003 8.83057,0.10465c0.47777,0.00566 0.76672,0.43485 0.76707,0.7088c0.0005,0.38977 0.00083,0.64573 0.00083,0.64573l-10.27941,-0.12182c0,0 -0.00018,-0.13511 -0.00067,-0.51726c-0.0004,-0.30642 0.32232,-0.82436 0.6816,-0.8201z" fill="url(#color-11)"/><path d="M265.56138,234.03707l0.09414,-3.65885l10.2794,0.12181l0.0052,2.46679z" data-paper-data="{&quot;index&quot;:null}" fill="#ffffff"/></g><g><path d="M278.86449,229.02188c1.09522,0.01298 6.75306,0.08003 8.83055,0.10465c0.47777,0.00566 0.76673,0.43486 0.76708,0.7088c0.0005,0.38977 0.00083,0.64572 0.00083,0.64572l-10.27941,-0.12182c0,0 -0.00018,-0.1351 -0.00067,-0.51725c-0.0004,-0.30642 0.32233,-0.82437 0.68162,-0.82011z" fill="url(#color-12)"/><path d="M277.84138,232.53177l0.19347,-2.26812l10.27941,0.12181z" data-paper-data="{&quot;index&quot;:null}" fill="#ffffff"/></g></g><g><g fill="url(#color-13)"><path d="M191.27197,228.19002c1.09522,0.01298 6.75308,0.08003 8.83056,0.10465c0.47777,0.00566 0.76673,0.43485 0.76708,0.7088c0.0005,0.38977 0.00083,1.73844 0.00083,1.73844c0,0 -9.95776,-2.55615 -9.59847,-2.55189z"/></g><g><path d="M203.6513,228.1748c1.09522,0.01298 6.75307,0.08003 8.83055,0.10464c0.47777,0.00566 0.76673,0.43486 0.76708,0.70881c0.0005,0.38977 0.00083,0.64572 0.00083,0.64572l-10.27941,-0.12182c0,0 -0.00017,-0.1351 -0.00066,-0.51725c-0.00039,-0.30642 0.32233,-0.82437 0.68161,-0.82011z" fill="url(#color-14)"/><path d="M202.33018,231.68469l0.49148,-2.26812l10.27942,0.12182l0.0052,4.0562z" data-paper-data="{&quot;index&quot;:null}" fill="#ffffff"/></g><g><path d="M216.6597,230.21754c1.09522,0.01298 6.75308,0.08003 8.83056,0.10465c0.47777,0.00566 0.76673,0.43485 0.76708,0.7088c0.0005,0.38977 0.00083,0.64572 0.00083,0.64572l-10.27941,-0.12181c0,0 -0.00017,-0.1351 -0.00066,-0.51725c-0.00039,-0.30642 0.32232,-0.82437 0.6816,-0.82011z" fill="url(#color-15)"/><path d="M215.73594,234.02545l0.19347,-2.76481l10.2794,0.12181l0.0052,3.55951z" data-paper-data="{&quot;index&quot;:null}" fill="#ffffff"/></g><g><path d="M228.44301,229.80497c1.09522,0.01298 6.75307,0.08003 8.83056,0.10465c0.47777,0.00566 0.76673,0.43486 0.76708,0.7088c0.0005,0.38977 0.00083,0.64572 0.00083,0.64572l-10.27941,-0.12181c0,0 -0.00017,-0.1351 -0.00066,-0.51725c-0.00039,-0.30642 0.32232,-0.82437 0.68161,-0.82011z" fill="url(#color-16)"/><path d="M227.91659,235.10294l-0.00521,-4.05621l10.27942,0.12182l0.0052,4.0562z" data-paper-data="{&quot;index&quot;:null}" fill="#ffffff"/></g></g></g><path d="M261.59668,119.4135c0,-2.45133 1.9872,-4.43852 4.43853,-4.43852c2.45133,0 4.43852,1.98719 4.43852,4.43852c0,2.45133 -1.98719,4.43852 -4.43852,4.43852c-2.45133,0 -4.43853,-1.98719 -4.43853,-4.43852z" fill="#000000" stroke-opacity="0.53226" stroke="#009cff" stroke-width="5" stroke-linecap="butt"/><path d="M213.8884,117.31651c0,-0.41421 0.33579,-0.75 0.75,-0.75c0.41421,0 0.75,0.33579 0.75,0.75c0,0.41421 -0.33579,0.75 -0.75,0.75c-0.41421,0 -0.75,-0.33579 -0.75,-0.75z" fill="#ffffff" stroke="none" stroke-width="0.5" stroke-linecap="butt"/><path d="M262.519,116.46033c0,-0.41421 0.33579,-0.75 0.75,-0.75c0.41421,0 0.75,0.33579 0.75,0.75c0,0.41421 -0.33579,0.75 -0.75,0.75c-0.41421,0 -0.75,-0.33579 -0.75,-0.75z" fill="#ffffff" stroke="none" stroke-width="0.5" stroke-linecap="butt"/></g></g></svg>